# xmcd CD database file
#
# Track frame offsets:
#	150
#	14484
#	28375
#	38203
#	47737
#	62119
#	76408
#	90885
#	106051
#	121376
#	134269
#	147259
#	159188
#	171165
#	184526
#	199336
#	212784
#	226451
#	240335
#	255031
#	270564
#	286755
#
# Disc length: 3963 seconds
#
# Revision: 1
# Processed by: cddbd v1.5.2PL0 Copyright (c) Steve Scherf et al.
# Submitted via: CDex 1.51
#
DISCID=240f7916
DTITLE=Val McDermid - Ein kalter Strom
DYEAR=2007
DGENRE=Hörbuch
TTITLE0=125 Ein kalter Strom
TTITLE1=126 Ein kalter Strom
TTITLE2=127 Ein kalter Strom
TTITLE3=128 Ein kalter Strom
TTITLE4=129 Ein kalter Strom
TTITLE5=130 Ein kalter Strom
TTITLE6=131 Ein kalter Strom
TTITLE7=132 Ein kalter Strom
TTITLE8=133 Ein kalter Strom
TTITLE9=134 Ein kalter Strom
TTITLE10=135 Ein kalter Strom
TTITLE11=136 Ein kalter Strom
TTITLE12=137 Ein kalter Strom
TTITLE13=138 Ein kalter Strom
TTITLE14=139 Ein kalter Strom
TTITLE15=140 Ein kalter Strom
TTITLE16=141 Ein kalter Strom
TTITLE17=142 Ein kalter Strom
TTITLE18=143 Ein kalter Strom
TTITLE19=144 Ein kalter Strom
TTITLE20=145 Ein kalter Strom
TTITLE21=146 Ein kalter Strom
EXTD=gelesen von Elke Schützhold YEAR: 2007
EXTT0=
EXTT1=
EXTT2=
EXTT3=
EXTT4=
EXTT5=
EXTT6=
EXTT7=
EXTT8=
EXTT9=
EXTT10=
EXTT11=
EXTT12=
EXTT13=
EXTT14=
EXTT15=
EXTT16=
EXTT17=
EXTT18=
EXTT19=
EXTT20=
EXTT21=
PLAYORDER=
